<svg xmlns="http://www.w3.org/2000/svg" viewBox="0 0 512 512" width="512" height="512">
  <rect width="512" height="512" rx="64" fill="#1677ff"/>
  <path d="M256 149c-29.3 0-53.3 24-53.3 53.3v96c0 29.3 24 53.3 53.3 53.3s53.3-24 53.3-53.3v-96c0-29.3-24-53.3-53.3-53.3zm-21.3 149.3v-85.3c0-11.8 9.5-21.3 21.3-21.3s21.3 9.5 21.3 21.3v85.3c0 11.8-9.5 21.3-21.3 21.3s-21.3-9.5-21.3-21.3zm53.3-42.7c0 47.2-38.1 85.3-85.3 85.3s-85.3-38.1-85.3-85.3h-21.3c0 58.9 48 106.7 106.7 106.7V394.7h42.7V320c58.7 0 106.7-47.8 106.7-106.7h-21.3z" fill="white"/>
</svg>
